<?xml version="1.0" encoding="iso-8859-1"?>
<!-- Uploaded to: SVG Repo, www.svgrepo.com, Generator: SVG Repo Mixer Tools -->
<svg height="800px" width="800px" version="1.1" id="Layer_1" xmlns="http://www.w3.org/2000/svg" xmlns:xlink="http://www.w3.org/1999/xlink" 
	 viewBox="0 0 512 512" xml:space="preserve">
<polygon style="fill:#E6AF78;" points="328.089,359.749 328.089,303.679 183.909,303.679 183.909,359.749 255.999,423.829 "/>
<path style="fill:#D29B6E;" d="M183.909,303.679v59.158c90.814,32.719,144.181-49.17,144.181-49.17v-9.99L183.909,303.679
	L183.909,303.679z"/>
<path style="fill:#EFF2FA;" d="M488.28,462.753c-0.058-30.863-19.575-63.773-53.161-73.114l-67.158-13.915l-19.072-28.801
	c-2.741-3.641-7.962-4.264-11.483-1.372l-81.514,70.435l0,0l0,0l-81.779-70.129c-3.532-2.879-8.751-2.235-11.478,1.416
	l-18.963,28.872l-67.105,14.168c-33.551,9.468-52.943,42.451-52.886,73.314l0.037,19.868c0.022,11.621,10.799,21.022,24.071,20.996
	l184.237-0.346l48.062-0.09l184.237-0.346c13.272-0.025,24.013-9.466,23.991-21.087L488.28,462.753z"/>
<g>
	<path style="fill:#E4EAF6;" d="M82.149,448.23l-42.783-31.875c-10.219,13.772-15.716,30.823-15.686,47.272l0.037,19.868
		c0.022,11.621,10.799,21.022,24.071,20.996l49.626-0.093v-22.523C97.415,469.039,91.865,456.808,82.149,448.23z"/>
	<path style="fill:#E4EAF6;" d="M488.317,482.621l-0.037-19.868c-0.037-19.712-8.023-40.248-22.531-54.956l-40.136,40.433
		c-9.716,8.578-15.266,20.809-15.266,33.645v21.935l53.98-0.101C477.598,503.684,488.339,494.243,488.317,482.621z"/>
</g>
<path style="fill:#785550;" d="M144.744,194.542c1.261-32.022,17.616-72.28,21.658-81.061c0.516-1.119,0.805-1.721,0.805-1.721
	c12.482-1.63,24.438-2.619,35.834-3.09c3.256-0.134,6.466-0.226,9.63-0.278c87.002-1.443,138.819,27.054,138.819,27.054
	l16.282,38.539c23.038-72.657,14.913-134.055,7.538-150.729c-56.057,8.115-138.92-39.457-191.136,0.358l-4.438,0.008
	c-33.178,0.063-52.693,28.912-52.627,64.182c0.064,34.047,15.959,101.626,15.959,101.626l1.676,11.119
	c-0.002-1.14-0.044-2.84,0-4.005C144.746,196.488,144.742,194.598,144.744,194.542z"/>
<path style="fill:#F0C087;" d="M366.924,219.686c0.081-0.633,0.158-1.266,0.232-1.896c1.939-16.631,3.81-37.68-3.308-53.091
	c-4.431-9.593-8.245-19.519-12.359-29.256c0,0-51.817-28.496-138.819-27.054c-3.164,0.052-6.374,0.144-9.63,0.278
	c-11.396,0.471-23.352,1.46-35.834,3.09c0,0-0.289,0.602-0.805,1.722c-30.01,65.196-34.771,146.214,20.253,200.039
	c12.618,12.343,27.946,22.127,45.001,26.981c2.118,0.604,4.257,1.13,6.416,1.576c0.419,0.087,0.838,0.172,1.259,0.252
	c5.395,1.033,10.906,1.574,16.506,1.564C320.762,343.774,359.551,277.184,366.924,219.686z"/>
<path style="fill:#E6AF78;" d="M182.791,218.68c-1.88-89.614,13.016-85.107,13.016-85.107c36.749-8.481,97.594-2.494,159.122,10.169
	c-1.136-2.773-2.277-5.544-3.44-8.298c0,0-51.817-28.496-138.819-27.054c-3.164,0.052-6.374,0.144-9.63,0.278
	c-11.396,0.471-23.352,1.46-35.834,3.09c0,0-0.289,0.602-0.805,1.722c-30.01,65.196-34.771,146.214,20.253,200.039
	c12.618,12.343,27.946,22.127,45.001,26.981c2.118,0.604,4.257,1.13,6.416,1.576c0.419,0.087,0.838,0.172,1.259,0.252
	c5.381,1.031,10.878,1.571,16.464,1.563C235.604,336.81,184.185,285.129,182.791,218.68z"/>
<path style="fill:#694B4B;" d="M375.309,23.254c-56.057,8.115-138.92-39.457-191.136,0.358c0,0-41.564,48.418-16.968,88.147
	c12.482-1.63,24.438-2.619,35.834-3.09c0.069-0.003,0.136-0.004,0.204-0.007c3.185-0.129,6.329-0.22,9.426-0.271
	c87.002-1.443,138.819,27.054,138.819,27.054l16.282,38.539C390.809,101.326,382.683,39.928,375.309,23.254z"/>
<path style="fill:#E4EAF6;" d="M231.906,440.063l23.986-24.076l-81.779-70.129c-3.532-2.879-8.751-2.235-11.478,1.416
	l-18.963,28.872l64.249,87.993L231.906,440.063z"/>
<path id="SVGCleanerId_0" style="fill:#E4EAF6;" d="M304.044,463.958l63.917-88.235l-19.072-28.801
	c-2.741-3.641-7.962-4.264-11.483-1.372l-81.514,70.435l24.076,23.986L304.044,463.958z"/>
<g>
	<path id="SVGCleanerId_0_1_" style="fill:#E4EAF6;" d="M304.044,463.958l63.917-88.235l-19.072-28.801
		c-2.741-3.641-7.962-4.264-11.483-1.372l-81.514,70.435l24.076,23.986L304.044,463.958z"/>
</g>
<polyline style="fill:#5B5D6E;" points="270.902,461.877 240.864,460.876 232.026,504.145 280.088,504.055 270.902,461.877 "/>
<path style="fill:#515262;" d="M231.921,448.073c0.017,8.811,7.239,16.007,16.051,15.991l16.021-0.03
	c8.811-0.017,16.007-7.239,15.99-16.051l-0.015-8.01l-24.076-23.986l-23.986,24.076L231.921,448.073z"/>
<path d="M495.79,462.739c-0.032-17.14-5.474-34.491-15.323-48.859c-10.762-15.7-25.747-26.584-43.335-31.476
	c-0.162-0.045-0.324-0.084-0.489-0.118l-64.127-13.288l-7.828-11.821l-9.536-14.401c-0.083-0.126-0.171-0.25-0.262-0.371
	c-2.917-3.872-7.553-6.185-12.405-6.185c-3.578,0-7.075,1.253-9.844,3.526c-0.049,0.04-0.097,0.08-0.144,0.121l-27.171,23.478
	l-49.451,42.731l-42.775-36.681l-34.096-29.24c-0.047-0.041-0.096-0.081-0.144-0.12c-2.416-1.969-5.383-3.164-8.47-3.432
	c-0.441-0.038-0.885-0.057-1.33-0.057c-0.609,0-1.216,0.036-1.814,0.107c-0.738,0.088-1.461,0.246-2.174,0.438
	c-2.182,0.585-4.226,1.621-5.963,3.067c-0.166,0.138-0.313,0.298-0.474,0.444c-0.307,0.277-0.616,0.554-0.9,0.856
	c-0.393,0.419-0.768,0.856-1.114,1.321c-0.042,0.056-0.08,0.114-0.12,0.171c-0.047,0.067-0.096,0.132-0.141,0.2l-17.265,26.287
	l-64.077,13.529c-0.164,0.035-0.327,0.075-0.488,0.12c-17.57,4.958-32.514,15.899-43.217,31.639
	c-9.795,14.405-15.171,31.777-15.139,48.916l0.037,19.868c0.03,15.724,14.166,28.494,31.528,28.492c0.021,0,0.045,0,0.066,0
	l184.204-0.346c0.009,0,0.018,0.001,0.027,0.001c0.011,0,0.022-0.001,0.033-0.001l47.98-0.09c0.011,0,0.022,0.001,0.033,0.001
	c0.01,0,0.021-0.001,0.031-0.001l184.228-0.346c8.239-0.015,16.025-2.879,21.924-8.064c6.181-5.433,9.577-12.73,9.562-20.547
	L495.79,462.739z M247.94,471.572c0.015,0,0.03,0,0.045,0l16.021-0.03c0.619-0.001,1.231-0.034,1.837-0.082l5.069,25.102
	l-29.742,0.056l4.975-25.121C246.741,471.543,247.338,471.572,247.94,471.572z M272.474,447.997
	c0.009,4.694-3.802,8.519-8.495,8.528l-16.021,0.03c-2.225-0.024-4.391-0.882-6.009-2.495c-1.62-1.613-2.514-3.744-2.518-6.001
	l-0.009-4.9l16.491-16.553l16.553,16.491L272.474,447.997z M303.118,452.435l-17.844-17.777c-0.001-0.001-0.002-0.002-0.003-0.003
	l-0.249-0.248l-18.097-18.029l51.691-44.666l23.59-20.384c0.12-0.085,0.413-0.117,0.595,0.025c0.008,0.006,0.02,0.008,0.027,0.016
	l8,12.081l8,12.081l-27.855,38.451L303.118,452.435z M169.204,351.596c0.052,0.014,0.098,0.033,0.131,0.057l75.526,64.766
	l-36.058,36.193l-55.997-76.693l15.91-24.223C168.847,351.572,169.053,351.558,169.204,351.596z M47.775,496.981
	c-0.013,0-0.025,0-0.039,0c-9.091,0-16.495-6.051-16.509-13.501l-0.037-19.868c-0.049-26.105,16.139-57.114,47.18-66.006
	l62.1-13.111l61.384,84.071c1.295,1.773,3.301,2.892,5.491,3.059c0.192,0.015,0.383,0.022,0.574,0.022
	c1.74,0,3.425-0.605,4.766-1.707c0.192-0.157,0.376-0.324,0.554-0.503l12.787-12.835c1.174,2.996,2.967,5.749,5.321,8.094
	c0.229,0.229,0.466,0.45,0.703,0.668l-6.196,31.281L47.775,496.981z M476.349,491.873c-3.164,2.781-7.439,4.318-12.037,4.326
	l-178.081,0.334l-6.311-31.248c2.615-2.418,4.678-5.421,5.987-8.797l12.837,12.789c1.414,1.408,3.321,2.19,5.3,2.19
	c0.2,0,0.401-0.008,0.602-0.024c2.19-0.175,4.192-1.301,5.48-3.08l61.068-84.301l62.149,12.877
	c31.075,8.775,47.379,39.723,47.428,65.828l0.037,19.868C480.814,486.06,479.231,489.341,476.349,491.873z"/>
<path d="M135.575,198.564c0,0.001,0,0.003,0,0.005l0.001,0.835c-0.056,2.816-0.05,5.613,0.016,8.395c0,0.049,0,0.099,0,0.148
	c0.013,3.569,0.158,7.252,0.433,10.949c0,0,0,0.001,0,0.002c0.122,1.64,0.273,3.318,0.451,4.99c0,0,0,0,0,0.001
	c0.323,3.051,0.745,6.148,1.252,9.206c0,0.003,0.001,0.005,0.002,0.008c0.191,1.153,0.395,2.304,0.611,3.45c0,0.001,0,0.001,0,0.002
	c0.003,0.019,0.007,0.037,0.01,0.056c0.006,0.032,0.013,0.069,0.02,0.103c0.003,0.02,0.006,0.033,0.01,0.053
	c0.011,0.06,0.023,0.123,0.035,0.182c0.004,0.023,0.008,0.042,0.013,0.065c0.002,0.014,0.006,0.03,0.008,0.043
	c0,0.003,0.001,0.006,0.002,0.01c3.038,15.866,8.397,30.916,15.561,44.587c0.185,0.354,0.37,0.708,0.558,1.061
	c0.356,0.668,0.715,1.336,1.08,1.997c0.636,1.155,1.283,2.306,1.948,3.445c0.024,0.041,0.048,0.08,0.072,0.12
	c0.753,1.287,1.531,2.557,2.321,3.821c0.09,0.144,0.18,0.287,0.27,0.43c0.878,1.395,1.771,2.779,2.695,4.145
	c12.665,18.725,28.722,33.443,46.465,42.863c0.043,0.023,0.087,0.046,0.13,0.069c2.517,1.332,5.066,2.559,7.647,3.674
	c0.083,0.036,0.165,0.073,0.248,0.109c1.202,0.516,2.411,1.003,3.626,1.471c0.207,0.08,0.415,0.159,0.622,0.238
	c1.186,0.448,2.377,0.874,3.573,1.275c0.194,0.065,0.389,0.126,0.584,0.19c1.248,0.41,2.499,0.801,3.757,1.159
	c0.002,0,0.003,0.001,0.005,0.002h0.001c1.152,0.328,2.314,0.636,3.473,0.921c0.069,0.017,0.137,0.029,0.205,0.046
	c1.09,0.265,2.18,0.515,3.26,0.737c0.001,0,0.002,0,0.004,0.001c0.002,0,0.004,0.001,0.007,0.001h0.002l0,0
	c0.294,0.061,0.589,0.118,0.883,0.177c0.16,0.032,0.321,0.066,0.481,0.096c0,0,0.001,0,0.002,0.001
	c0.016,0.003,0.097,0.019,0.099,0.019c0.006,0.001,0.011,0.002,0.017,0.003c0.086,0.016,0.171,0.033,0.257,0.048
	c0.789,0.148,1.583,0.261,2.375,0.389c0.604,0.098,1.206,0.21,1.81,0.296c0.924,0.131,1.85,0.228,2.776,0.332
	c0.541,0.06,1.08,0.138,1.621,0.189c1.066,0.101,2.132,0.165,3.198,0.229c0.402,0.024,0.803,0.065,1.205,0.085
	c1.468,0.069,2.934,0.105,4.395,0.105h0.001c0.001,0,0.003,0,0.005,0h0.17l0,0h0.001c0.551-0.001,1.101-0.007,1.65-0.018
	c0.028,0,0.056-0.001,0.083-0.002c0.199-0.004,0.399-0.015,0.598-0.021c0.305-0.009,0.611-0.02,0.916-0.032
	c0.699-0.026,1.397-0.059,2.095-0.1c0.07-0.004,0.14-0.009,0.21-0.014c25.59-1.576,50.38-13.706,70.634-34.552
	c0.089-0.091,0.176-0.184,0.265-0.275c0.557-0.576,1.11-1.156,1.66-1.745c0.279-0.299,0.557-0.603,0.834-0.904
	c0.246-0.268,0.496-0.531,0.74-0.802c0.145-0.161,0.287-0.326,0.432-0.489c0.125-0.14,0.253-0.276,0.378-0.418
	c0.175-0.198,0.346-0.402,0.521-0.601c0.375-0.429,0.749-0.858,1.119-1.292c0.219-0.256,0.438-0.515,0.656-0.773
	c0.527-0.624,1.047-1.253,1.564-1.885c0.021-0.025,0.041-0.051,0.062-0.076c18.268-22.441,30.23-50.805,33.893-80.671
	c0.189-1.55,0.357-3.097,0.497-4.6c0-0.002,0.001-0.004,0.001-0.006c0.055-0.594,0.108-1.188,0.157-1.783c0-0.001,0-0.003,0-0.004
	c0.096-1.179,0.176-2.358,0.246-3.535c0.107-1.347,0.201-2.693,0.278-4.031c0.391-6.813,0.356-13.502,0.283-18.57
	c-0.011-0.772,0.027-2.479,0.067-4.285c0.185-8.285,0.161-12.693-0.19-15.5c23.102-74.331,14.318-136.92,6.676-154.199
	c-1.363-3.081-4.609-4.876-7.944-4.395c-4.008,0.58-8.419,0.874-13.11,0.874c-17.34,0-36.715-3.853-57.228-7.931
	C282.223,4.457,259.813,0,238.467,0c-22.971,0-41.573,5.274-56.767,16.108l-1.977,0.004c-35.478,0.067-60.201,29.554-60.122,71.706
	c0.062,32.833,14.034,94.18,15.96,102.484L135.575,198.564z M212.794,115.898c2.236-0.037,4.447-0.051,6.635-0.048
	c0.724,0,1.448,0.015,2.172,0.02c1.562,0.011,3.127,0.021,4.664,0.051c0.289,0.005,0.579,0.017,0.868,0.023
	c15.147,0.336,29.08,1.581,41.666,3.364c32.062,4.546,55.41,12.548,68.107,17.74c3.963,1.621,6.912,2.975,8.735,3.855l0.779,1.843
	l13.842,32.763l0.028,15.138l0.032,16.959c-0.001,2.911-0.122,5.893-0.312,8.887c-0.07,0.828-0.139,1.657-0.221,2.48
	c-3.193,31.952-15.511,61.462-34.684,83.093c-18.056,20.372-41.339,32.631-64.537,34.152c-0.067,0.004-0.133,0.009-0.2,0.013
	c-0.594,0.038-1.186,0.063-1.779,0.086c-0.272,0.01-0.544,0.021-0.817,0.028c-0.651,0.019-1.301,0.033-1.95,0.034h-0.001h-0.143
	c-1.228,0-2.459-0.03-3.693-0.089c-0.374-0.018-0.75-0.056-1.125-0.079c-0.859-0.053-1.718-0.104-2.578-0.186
	c-0.458-0.043-0.913-0.109-1.371-0.16c-0.778-0.087-1.556-0.168-2.333-0.278c-0.501-0.071-0.999-0.165-1.499-0.246
	c-0.782-0.125-1.564-0.243-2.343-0.392c-0.38-0.073-0.76-0.15-1.146-0.23c-1.948-0.402-3.926-0.889-5.879-1.445
	c-1.367-0.388-2.726-0.816-4.081-1.277c-0.192-0.065-0.38-0.141-0.573-0.207c-1.13-0.395-2.257-0.807-3.377-1.251
	c-0.299-0.118-0.595-0.247-0.893-0.368c-1.034-0.423-2.067-0.859-3.092-1.323c-0.265-0.119-0.528-0.244-0.792-0.366
	c-1.097-0.509-2.19-1.038-3.275-1.594c-0.163-0.083-0.327-0.167-0.491-0.252c-15.849-8.241-30.297-21.44-41.754-38.379
	c-15.587-23.046-24.029-50.676-24.773-80.646l-0.015-8.111c0.053-2.491,0.152-4.995,0.309-7.513
	c0.092-1.478,0.224-2.959,0.371-4.439c0.053-0.459,0.106-0.917,0.165-1.377c0.051-0.398,0.103-0.798,0.158-1.197
	c0.08-0.584,0.165-1.17,0.253-1.757c0.058-0.386,0.117-0.772,0.179-1.159c0.097-0.61,0.2-1.222,0.306-1.834
	c0.063-0.366,0.126-0.733,0.192-1.101c0.116-0.644,0.238-1.289,0.363-1.933c0.065-0.337,0.129-0.675,0.197-1.013
	c0.138-0.689,0.282-1.38,0.43-2.07c0.063-0.294,0.124-0.59,0.188-0.885c0.165-0.758,0.337-1.516,0.513-2.274
	c0.052-0.226,0.103-0.454,0.156-0.68c0.208-0.887,0.425-1.773,0.645-2.656c0.024-0.095,0.046-0.191,0.07-0.286
	c1.262-5.026,2.705-9.989,4.219-14.735c0.027-0.084,0.054-0.167,0.081-0.251c0.272-0.852,0.548-1.698,0.824-2.536
	c0.042-0.128,0.085-0.254,0.127-0.381c0.262-0.793,0.527-1.578,0.791-2.355c0.051-0.149,0.101-0.296,0.152-0.445
	c0.256-0.748,0.513-1.489,0.77-2.221c0.058-0.165,0.115-0.327,0.173-0.492c0.252-0.715,0.505-1.424,0.757-2.122
	c0.057-0.16,0.115-0.318,0.172-0.478c0.252-0.697,0.505-1.385,0.755-2.064c0.056-0.151,0.112-0.302,0.167-0.453
	c0.251-0.679,0.503-1.347,0.752-2.005c0.053-0.139,0.105-0.279,0.158-0.418c0.254-0.668,0.506-1.324,0.755-1.968
	c0.045-0.117,0.091-0.235,0.136-0.351c0.258-0.666,0.514-1.317,0.767-1.956c0.034-0.085,0.068-0.173,0.102-0.257
	c0.264-0.667,0.524-1.316,0.78-1.95c0.022-0.054,0.044-0.11,0.066-0.164c0.275-0.683,0.547-1.348,0.811-1.99v-0.001
	c1.079-2.627,2.059-4.916,2.878-6.789c0.003-0.007,0.006-0.013,0.009-0.02c0.196-0.45,0.383-0.873,0.561-1.273
	c0.032-0.073,0.061-0.137,0.093-0.208c0.116-0.262,0.227-0.51,0.333-0.749c1.402-0.168,2.806-0.315,4.208-0.47
	c1.13-0.124,2.262-0.26,3.392-0.374c1.546-0.156,3.091-0.287,4.635-0.426c1.075-0.096,2.153-0.206,3.226-0.293
	c1.682-0.137,3.358-0.246,5.035-0.361c0.931-0.064,1.866-0.142,2.796-0.199c2.601-0.16,5.195-0.294,7.776-0.401
	C206.489,116.043,209.666,115.95,212.794,115.898z M179.75,31.131l4.438-0.008c1.64-0.003,3.234-0.543,4.54-1.538
	c12.853-9.801,29.124-14.566,49.739-14.566c19.867,0,41.54,4.309,62.499,8.478c21.259,4.227,41.338,8.219,60.157,8.219
	c3.128,0,6.163-0.115,9.079-0.345c5.057,17.751,10.031,63.559-3.853,119.953l-7.944-18.802c-0.014-0.034-0.036-0.063-0.051-0.097
	c-0.135-0.309-0.294-0.608-0.472-0.898c-0.023-0.038-0.038-0.081-0.062-0.119c-0.033-0.052-0.077-0.096-0.112-0.147
	c-0.074-0.11-0.138-0.225-0.217-0.332c-0.001-0.001-0.002-0.002-0.003-0.003c0-0.001-0.001-0.001-0.002-0.002
	c-0.112-0.149-0.237-0.287-0.359-0.427c-0.023-0.026-0.04-0.057-0.063-0.082c-0.01-0.011-0.022-0.02-0.032-0.031
	c-0.254-0.278-0.529-0.534-0.819-0.769c-0.054-0.044-0.11-0.084-0.166-0.126c-0.275-0.21-0.563-0.404-0.863-0.574
	c-0.027-0.015-0.05-0.037-0.078-0.051c-0.175-0.097-0.697-0.379-1.543-0.81c-8.904-4.534-54.486-25.821-127.278-27.156
	c-0.126-0.002-0.253-0.005-0.379-0.008c-2.116-0.037-4.254-0.056-6.416-0.058c-0.147,0-0.294-0.004-0.442-0.004
	c-0.219,0-0.445,0.005-0.665,0.005c-1.699,0.003-3.409,0.015-5.135,0.041c-0.133,0.002-0.263,0.001-0.396,0.003
	c-0.018,0-0.036,0-0.055,0c-0.085,0.001-0.168,0.003-0.252,0.004l0,0c-3.251,0.054-6.553,0.149-9.814,0.284
	c-12.032,0.498-24.311,1.556-36.497,3.148c-2.201,0.287-4.145,1.531-5.334,3.369c-0.17,0.262-0.324,0.537-0.462,0.823
	c0,0-0.019,0.04-0.057,0.119c-0.113,0.236-0.389,0.821-0.802,1.716c-0.118,0.257-0.244,0.533-0.374,0.818
	c-5.226,11.399-11.411,25.929-16.131,41.846c-4.107-21.407-8.423-47.966-8.455-65.216C134.566,59.63,148.5,31.189,179.75,31.131z"/>
</svg>