<?xml version="1.0" encoding="UTF-8"?>
<!DOCTYPE svg PUBLIC "-//W3C//DTD SVG 1.1//EN" "http://www.w3.org/Graphics/SVG/1.1/DTD/svg11.dtd">
<svg xmlns="http://www.w3.org/2000/svg" version="1" width="373px" height="76px"
    style="shape-rendering:geometricPrecision; text-rendering:geometricPrecision; image-rendering:optimizeQuality; fill-rule:evenodd; clip-rule:evenodd"
    xmlns:xlink="http://www.w3.org/1999/xlink">
    <g>
        <path style="opacity:0.548" fill="#000000"
            d="M 27.5,-0.5 C 31.8333,-0.5 36.1667,-0.5 40.5,-0.5C 46.2133,2.76476 48.38,7.76476 47,14.5C 43.1085,24.0521 38.7752,33.3855 34,42.5C 33.005,45.1262 32.6717,47.7929 33,50.5C 34,51.1667 35,51.8333 36,52.5C 39.572,50.931 42.572,48.5976 45,45.5C 49.4686,38.2289 53.1353,30.5623 56,22.5C 57.0793,20.6063 58.4126,20.273 60,21.5C 59.3588,34.7624 55.8588,47.2624 49.5,59C 54.7667,59.3996 59.7667,58.3996 64.5,56C 66.7005,51.5822 67.5338,52.0822 67,57.5C 66.0975,58.7014 64.9308,59.5348 63.5,60C 58.191,60.9429 52.8577,61.7763 47.5,62.5C 42.5773,68.4371 36.5773,72.7704 29.5,75.5C 24.8333,75.5 20.1667,75.5 15.5,75.5C 10.5731,72.5807 10.2397,69.0807 14.5,65C 24.3137,60.487 34.647,58.3203 45.5,58.5C 48.2075,53.7808 49.7075,48.7808 50,43.5C 46.61,49.7307 41.4434,53.3974 34.5,54.5C 31.99,54.167 29.8234,53.167 28,51.5C 27.3333,48.1667 27.3333,44.8333 28,41.5C 31.4728,33.2212 35.4728,25.2212 40,17.5C 45.6918,5.67432 42.1918,0.50765 29.5,2C 15.9248,7.40724 7.5915,17.2406 4.5,31.5C 5.72327,39.4313 10.0566,42.2646 17.5,40C 23.3336,35.8382 26.0002,30.3382 25.5,23.5C 23.5,22.8333 21.5,22.1667 19.5,21.5C 28.8015,18.3033 31.9682,21.3033 29,30.5C 24.429,40.3681 16.929,44.2014 6.5,42C 5.06919,41.5348 3.90252,40.7014 3,39.5C 1.52203,36.8421 0.355367,34.1755 -0.5,31.5C -0.5,30.5 -0.5,29.5 -0.5,28.5C 3.35265,13.6457 12.686,3.97902 27.5,-0.5 Z M 33.5,61.5 C 36.8499,61.335 40.1832,61.5017 43.5,62C 38.0291,68.7355 31.0291,72.9021 22.5,74.5C 15.4692,73.6138 14.8025,71.1138 20.5,67C 24.7415,64.6512 29.0748,62.8179 33.5,61.5 Z" />
    </g>
    <g>
        <path style="opacity:0.577" fill="#000000"
            d="M 241.5,1.5 C 247.925,1.13036 254.258,1.63036 260.5,3C 265.374,9.11985 264.041,13.2865 256.5,15.5C 255.833,15.1667 255.167,14.8333 254.5,14.5C 260.764,11.6029 261.097,8.10289 255.5,4C 249.97,3.08634 244.637,3.753 239.5,6C 234.115,9.42334 233.449,13.4233 237.5,18C 241.888,20.8606 246.554,23.1939 251.5,25C 259.152,28.803 261.319,34.6363 258,42.5C 248.352,55.3876 235.519,60.2209 219.5,57C 204.249,51.0071 201.416,41.1737 211,27.5C 212.916,25.7905 215.082,24.4572 217.5,23.5C 218.521,24.0016 218.688,24.6683 218,25.5C 211.289,31.9629 209.289,39.6295 212,48.5C 218.456,55.139 226.29,57.3057 235.5,55C 245.076,53.0902 251.076,47.4235 253.5,38C 253.068,34.5665 251.401,31.8998 248.5,30C 243.136,27.3178 237.802,24.6511 232.5,22C 226.819,15.7235 227.486,10.0569 234.5,5C 236.925,3.78739 239.259,2.62073 241.5,1.5 Z" />
    </g>
    <g>
        <path style="opacity:0.535" fill="#000000"
            d="M 167.5,12.5 C 169.857,12.3367 172.19,12.5034 174.5,13C 167.509,23.6488 161.842,34.9821 157.5,47C 157.833,47.8333 158.167,48.6667 158.5,49.5C 162.072,45.3689 164.906,40.7023 167,35.5C 169.324,31.9807 172.491,29.9807 176.5,29.5C 181.706,29.5765 182.872,31.9099 180,36.5C 177.374,39.2308 174.207,41.0642 170.5,42C 168.352,44.0749 168.018,46.4082 169.5,49C 172.789,49.7464 175.289,48.5797 177,45.5C 181.002,38.6618 183.502,31.3285 184.5,23.5C 186.167,23.5 187.833,23.5 189.5,23.5C 189.708,25.9201 189.374,28.2534 188.5,30.5C 190.396,31.4656 192.396,31.7989 194.5,31.5C 193.367,37.4402 191.367,43.1069 188.5,48.5C 189.274,49.7112 190.107,49.7112 191,48.5C 192.753,45.9952 194.253,43.3286 195.5,40.5C 196.5,39.1667 197.5,39.1667 198.5,40.5C 196.755,44.4081 194.422,47.9081 191.5,51C 186.014,52.8253 183.514,50.9919 184,45.5C 185.099,42.1363 186.599,38.9696 188.5,36C 187.437,34.8118 186.103,34.3118 184.5,34.5C 183.237,39.0319 181.403,43.3653 179,47.5C 174.076,52.3469 168.909,52.6802 163.5,48.5C 159.585,52.3767 155.752,52.3767 152,48.5C 149.441,51.3492 146.274,52.1825 142.5,51C 141.471,47.9429 140.138,47.9429 138.5,51C 135.773,51.8184 133.106,51.6517 130.5,50.5C 130.013,49.5539 129.68,48.5539 129.5,47.5C 130.598,43.9901 131.765,40.6568 133,37.5C 128.412,41.186 124.912,45.686 122.5,51C 120.782,51.346 119.115,51.846 117.5,52.5C 116.808,51.9747 116.308,51.3081 116,50.5C 112.927,51.6168 109.76,51.7835 106.5,51C 105.295,49.7295 103.962,49.0628 102.5,49C 97.5385,55.3027 92.5385,61.6361 87.5,68C 84.387,69.7788 81.0537,70.9454 77.5,71.5C 71.5441,70.2814 70.0441,66.948 73,61.5C 79.1443,57.013 85.9776,54.013 93.5,52.5C 94.0081,49.8239 94.1747,47.1572 94,44.5C 91.6067,50.252 87.4401,52.4187 81.5,51C 79.9963,49.5093 79.1629,47.676 79,45.5C 77.6667,46.8333 76.3333,46.8333 75,45.5C 73.1667,47.3333 71.3333,49.1667 69.5,51C 63.7306,52.7535 60.3973,50.7535 59.5,45C 60.1276,39.4323 62.461,34.7657 66.5,31C 75.9187,27.4148 79.4187,30.5815 77,40.5C 75.3851,42.0107 75.3851,43.344 77,44.5C 80.1263,39.7674 83.6263,35.2674 87.5,31C 91.4298,29.2488 95.4298,29.0821 99.5,30.5C 101.461,31.8479 101.628,33.1813 100,34.5C 99.3333,39.1667 99.3333,43.8333 100,48.5C 102.842,41.622 107.009,35.7886 112.5,31C 115.227,30.1816 117.894,30.3483 120.5,31.5C 121.383,33.4798 121.217,35.4798 120,37.5C 117.033,40.4012 113.533,42.4012 109.5,43.5C 107.943,46.2734 108.443,48.6067 111,50.5C 114.91,48.5934 118.244,45.9267 121,42.5C 122.54,38.5808 124.707,35.0808 127.5,32C 129.5,31.3333 131.5,31.3333 133.5,32C 131.993,32.8373 131.493,34.0039 132,35.5C 135.164,33.1119 138.664,31.9453 142.5,32C 139.433,37.3011 136.766,42.8011 134.5,48.5C 136.329,49.2824 137.829,48.6157 139,46.5C 141.246,39.823 145.079,34.323 150.5,30C 153.553,29.8214 156.553,29.3214 159.5,28.5C 162.18,23.1401 164.847,17.8068 167.5,12.5 Z M 72.5,31.5 C 74.2132,32.6354 74.8799,34.302 74.5,36.5C 73.5,36.5 72.5,36.5 71.5,36.5C 73.5198,42.1435 71.8532,46.4769 66.5,49.5C 65.5853,48.6721 64.9186,47.6721 64.5,46.5C 65.8724,40.7522 68.5391,35.7522 72.5,31.5 Z M 94.5,31.5 C 99.6781,33.034 99.6781,34.7006 94.5,36.5C 92.8505,41.3164 90.1839,45.4831 86.5,49C 85.2752,49.5628 84.2752,49.2295 83.5,48C 85.4242,41.2597 89.0908,35.7597 94.5,31.5 Z M 155.5,31.5 C 156.376,31.3691 157.043,31.7025 157.5,32.5C 154.808,38.5663 151.141,43.8996 146.5,48.5C 146.554,41.3956 149.554,35.7289 155.5,31.5 Z M 176.5,31.5 C 177.431,36.0902 175.431,38.5902 170.5,39C 172.334,36.3367 174.334,33.8367 176.5,31.5 Z M 115.5,33.5 C 116.376,33.3691 117.043,33.7025 117.5,34.5C 116.531,37.3017 114.698,39.3017 112,40.5C 112.579,38.008 113.746,35.6747 115.5,33.5 Z M 90.5,56.5 C 87.7344,63.9332 82.4011,67.9332 74.5,68.5C 74.6423,65.383 75.9756,62.883 78.5,61C 82.203,58.646 86.203,57.146 90.5,56.5 Z" />
    </g>
    <g>
        <path style="opacity:0.553" fill="#000000"
            d="M 372.5,39.5 C 372.5,41.1667 372.5,42.8333 372.5,44.5C 371.217,46.8682 369.55,49.0349 367.5,51C 365.167,51.6667 362.833,51.6667 360.5,51C 359.809,49.9326 359.309,48.7659 359,47.5C 355.592,52.2414 351.925,52.5747 348,48.5C 345.441,51.3492 342.274,52.1825 338.5,51C 336.813,45.8391 337.813,41.1725 341.5,37C 341.167,36.8333 340.833,36.6667 340.5,36.5C 335.538,40.4535 332.204,45.4535 330.5,51.5C 329.167,51.5 327.833,51.5 326.5,51.5C 327.124,46.2927 328.291,41.2927 330,36.5C 325.891,40.6098 322.557,45.2765 320,50.5C 315.757,53.0441 311.757,52.7107 308,49.5C 307.881,44.5462 309.381,40.0462 312.5,36C 311.892,35.1301 311.059,34.6301 310,34.5C 307.44,38.6144 305.107,42.9477 303,47.5C 300.794,51.1252 297.627,52.2919 293.5,51C 292.809,49.9326 292.309,48.7659 292,47.5C 288.39,52.3047 284.556,52.6381 280.5,48.5C 277.67,51.4776 274.337,52.1442 270.5,50.5C 269.978,49.3926 269.645,48.2259 269.5,47C 270.334,43.2167 271.5,39.7167 273,36.5C 268.283,40.2724 264.783,44.939 262.5,50.5C 260.477,51.855 258.477,52.1883 256.5,51.5C 262.194,38.6106 268.528,26.1106 275.5,14C 277.5,13.3333 279.5,13.3333 281.5,14C 277.2,20.0948 273.534,26.5948 270.5,33.5C 270.833,33.8333 271.167,34.1667 271.5,34.5C 274.4,32.0487 277.734,30.7153 281.5,30.5C 279.283,36.3036 276.95,42.1369 274.5,48C 274.833,48.5 275.167,49 275.5,49.5C 279.774,44.467 283.44,38.967 286.5,33C 290.64,29.7581 295.306,28.7581 300.5,30C 301.167,31.6667 301.833,33.3333 302.5,35C 298.891,39.331 297.224,44.1643 297.5,49.5C 300.144,46.8915 302.311,43.8915 304,40.5C 305.972,34.9442 307.472,29.2775 308.5,23.5C 310.167,23.5 311.833,23.5 313.5,23.5C 313.945,26.3646 313.278,28.8646 311.5,31C 313.81,31.4966 316.143,31.6633 318.5,31.5C 316.81,37.2266 314.81,42.8933 312.5,48.5C 312.833,48.8333 313.167,49.1667 313.5,49.5C 317.293,43.4159 320.959,37.2493 324.5,31C 326.5,30.3333 328.5,30.3333 330.5,31C 328.671,32.1133 327.837,33.6133 328,35.5C 329.818,33.0005 332.152,31.3338 335,30.5C 336.107,30.5852 337.107,30.9186 338,31.5C 338,32.8333 338,34.1667 338,35.5C 341.094,31.689 344.927,30.3557 349.5,31.5C 346.631,36.5738 344.298,41.9071 342.5,47.5C 342.833,48.1667 343.167,48.8333 343.5,49.5C 347.072,45.3689 349.906,40.7023 352,35.5C 356.955,29.1073 362.789,27.9406 369.5,32C 367.859,33.6458 368.193,34.6458 370.5,35C 366.29,38.9666 364.457,43.8 365,49.5C 367.764,46.2775 370.264,42.9441 372.5,39.5 Z M 295.5,31.5 C 297.103,31.3118 298.437,31.8118 299.5,33C 295.574,35.9402 292.74,39.7735 291,44.5C 285.458,51.2993 284.124,50.2993 287,41.5C 289.15,37.4973 291.984,34.1639 295.5,31.5 Z M 362.5,31.5 C 363.978,31.238 365.311,31.5713 366.5,32.5C 362.604,36.6101 359.437,41.2768 357,46.5C 355.89,48.0368 354.39,48.7035 352.5,48.5C 354.025,41.7854 357.358,36.1188 362.5,31.5 Z" />
    </g>
</svg>